<svg xmlns="http://www.w3.org/2000/svg" aria-hidden="true" style="position:absolute;width:0;height:0;overflow:hidden">
  <defs>
    <symbol id="icon-sand-watch" viewBox="0 0 23 32">
      <path stroke-linecap="round" stroke-linejoin="round" stroke-width="2.909" d="M20.6 1.455H2.673C2 1.455 1.455 2 1.455 2.673c0 3.877 1.54 7.595 4.281 10.336l1.773 1.773c.176.176.264.264.327.349a1.454 1.454 0 0 1 0 1.739 3.703 3.703 0 0 1-.327.349l-1.773 1.773a14.617 14.617 0 0 0-4.281 10.336c0 .673.545 1.218 1.218 1.218H20.6c.673 0 1.218-.545 1.218-1.218 0-3.877-1.54-7.595-4.281-10.336l-1.773-1.773a3.58 3.58 0 0 1-.327-.349 1.454 1.454 0 0 1 0-1.739 3.58 3.58 0 0 1 .327-.349l1.773-1.773a14.617 14.617 0 0 0 4.281-10.336c0-.673-.545-1.218-1.218-1.218z"/>
    </symbol>
    <symbol id="icon-arrow-left" viewBox="0 0 32 32">
      <path stroke-linecap="round" stroke-linejoin="round" stroke-width="2.667" d="M26.667 16H5.334M13.333 24l-8-8 8-8"/>
    </symbol>
    <symbol id="icon-arrow-right" viewBox="0 0 32 32">
      <path stroke-linecap="round" stroke-linejoin="round" stroke-width="2.667" d="M5.333 16h21.333M18.667 8l8 8-8 8"/>
    </symbol>
    <symbol id="icon-brush" viewBox="0 0 32 32">
      <path stroke-linecap="round" stroke-linejoin="round" stroke-width="2.783" d="M2.087 29.216c2.783 0 6.411.475 8.313-1.426a4.87 4.87 0 1 0-6.887-6.887c-1.902 1.902 0 5.53-1.426 8.313z"/>
      <path stroke-linecap="round" stroke-linejoin="round" stroke-width="2.783" d="M10.435 20.868c-.684-.684-1.026-1.026-1.219-1.384a2.782 2.782 0 0 1 .053-2.737c.207-.35.562-.679 1.271-1.336L24.269 2.699a3.067 3.067 0 0 1 4.335 4.335L15.891 20.763c-.657.709-.985 1.064-1.336 1.271a2.784 2.784 0 0 1-2.737.053c-.358-.193-.7-.535-1.384-1.219z"/>
    </symbol>
    <symbol id="icon-chat" viewBox="0 0 32 32">
      <path stroke-linecap="round" stroke-linejoin="round" stroke-width="2.783" d="M7.088 14.927a11.2 11.2 0 0 1-.131-1.71c0-6.147 5.016-11.13 11.204-11.13s11.204 4.983 11.204 11.13c0 1.389-.256 2.718-.723 3.944-.097.255-.146.382-.168.481s-.03.168-.033.269c-.002.102.011.214.039.438l.56 4.55c.061.493.091.739.009.918a.698.698 0 0 1-.358.35c-.181.078-.426.042-.917-.03l-4.432-.65c-.232-.034-.347-.051-.453-.05-.104.001-.176.008-.278.03s-.235.071-.498.17a11.353 11.353 0 0 1-5.663.583m-7.223 5.693c4.125 0 7.469-3.426 7.469-7.652s-3.344-7.652-7.469-7.652-7.469 3.426-7.469 7.652c0 .85.135 1.667.385 2.43.105.323.158.484.175.594.018.115.021.18.014.296-.006.111-.034.237-.09.489l-.851 3.842 4.167-.569c.227-.031.341-.047.44-.046.105.001.16.006.263.027.097.019.242.07.532.173a7.306 7.306 0 0 0 2.434.415z"/>
    </symbol>
    <symbol id="icon-faq-down" viewBox="0 0 32 32">
      <path stroke-linecap="round" stroke-width="4.571" d="M29.714 8 16 21.714 2.286 8"/>
    </symbol>
    <symbol id="icon-faq-up" viewBox="0 0 32 32">
      <path stroke-linecap="round" stroke-width="4.571" d="M29.714 24 16 10.286 2.286 24"/>
    </symbol>
    <symbol id="icon-form-checked" viewBox="0 0 32 32">
      <path d="M16 0a15.997 15.997 0 0 1 16 16 16.003 16.003 0 0 1-16 16A16.003 16.003 0 0 1 0 16 16.003 16.003 0 0 1 16 0zm-1.993 19.157L10.453 15.6a1.362 1.362 0 0 0-.97-.401 1.37 1.37 0 0 0-1.372 1.371c0 .364.145.713.402.97l4.526 4.526a1.357 1.357 0 0 0 .971.404 1.38 1.38 0 0 0 .971-.404l9.371-9.374a1.366 1.366 0 0 0 .41-.972 1.368 1.368 0 0 0-.848-1.275 1.384 1.384 0 0 0-1.055.003c-.167.07-.318.173-.445.302l-8.405 8.405z"/>
    </symbol>
    <symbol id="icon-location" viewBox="0 0 32 32">
      <path stroke-linecap="round" stroke-linejoin="round" stroke-width="1.333" d="M20 14a4.003 4.003 0 0 1-4 4 4.003 4.003 0 0 1-4-4 4.003 4.003 0 0 1 4-4 4.003 4.003 0 0 1 4 4z"/>
      <path stroke-linecap="round" stroke-linejoin="round" stroke-width="1.333" d="M26 14c0 9.523-10 15-10 15S6 23.523 6 14a10.001 10.001 0 0 1 20 0z"/>
    </symbol>
    <symbol id="icon-mail" viewBox="0 0 32 32">
      <path stroke-linecap="round" stroke-linejoin="round" stroke-width="1.454" d="M30.182 8.364v15.273a3.272 3.272 0 0 1-3.273 3.273H5.091a3.272 3.272 0 0 1-3.273-3.273V8.364m28.364 0a3.272 3.272 0 0 0-3.273-3.273H5.091a3.272 3.272 0 0 0-3.273 3.273m28.364 0v.353a3.277 3.277 0 0 1-1.556 2.787l-10.909 6.713a3.27 3.27 0 0 1-3.432 0L3.376 11.506A3.266 3.266 0 0 1 1.82 8.719v-.355"/>
    </symbol>
    <symbol id="icon-menu" viewBox="0 0 32 32">
      <path d="M5.334 23.027v-1.333h21.333v1.333H5.334zm0-6.36v-1.333h21.333v1.333H5.334zm0-6.36V8.974h21.333v1.333H5.334z"/>
    </symbol>
    <symbol id="icon-menu-close" viewBox="0 0 32 32">
      <path stroke-linecap="round" stroke-linejoin="round" stroke-width="2" d="M24 8 8 24M8 8l16 16"/>
    </symbol>
    <symbol id="icon-modal-close" viewBox="0 0 32 32">
      <path stroke-linecap="round" stroke-linejoin="round" stroke-width="2.667" d="M24 8 8 24M8 8l16 16"/>
    </symbol>
    <symbol id="icon-phone" viewBox="0 0 32 32">
      <path stroke-linecap="round" stroke-linejoin="round" stroke-width="1.454" d="M1.818 8.364c0 12.049 9.769 21.818 21.818 21.818h3.273a3.272 3.272 0 0 0 3.273-3.273v-1.996c0-.751-.511-1.405-1.239-1.587l-6.433-1.609c-.64-.16-1.312.08-1.706.607l-1.411 1.881c-.41.547-1.119.788-1.76.553a17.502 17.502 0 0 1-10.39-10.39c-.236-.641.006-1.35.553-1.76l1.881-1.411a1.634 1.634 0 0 0 .607-1.706L8.675 3.058a1.633 1.633 0 0 0-1.587-1.24H5.092a3.272 3.272 0 0 0-3.273 3.273v3.273z"/>
    </symbol>
    <symbol id="icon-user" viewBox="0 0 32 32">
      <path stroke-linecap="round" stroke-linejoin="round" stroke-width="2.667" d="M26.667 28c0-1.861 0-2.791-.23-3.548a5.333 5.333 0 0 0-3.556-3.556c-.757-.23-1.687-.23-3.548-.23h-6.667c-1.861 0-2.791 0-3.548.23a5.335 5.335 0 0 0-3.556 3.556c-.23.757-.23 1.687-.23 3.548M16 16a6 6 0 1 0 0-12 6 6 0 0 0 0 12z"/>
    </symbol>
    <symbol id="icon-visit-arrow" viewBox="0 0 32 32">
      <path stroke-linecap="round" stroke-linejoin="round" stroke-width="3.556" d="M3.111 28.889 28.889 3.111m0 0h-24m24 0v24"/>
    </symbol>
    <symbol id="icon-arrow-hero" viewBox="0 0 60 32">
      <path d="M2 14a2 2 0 1 0 0 4v-4zm57.414 3.414a2 2 0 0 0 0-2.828L46.686 1.858a2 2 0 1 0-2.828 2.828L55.172 16 43.858 27.314a2 2 0 1 0 2.828 2.828l12.728-12.728zM2 16v2h56v-4H2v2z"/>
    </symbol>
    <symbol id="icon-eclipse" viewBox="0 0 22 32">
      <path d="M0 30.669C5.651 28.2 9.6 22.561 9.6 16S5.651 3.8 0 1.331A15.95 15.95 0 0 1 6.4 0c8.837 0 16 7.163 16 16s-7.163 16-16 16A15.95 15.95 0 0 1 0 30.669z"/>
    </symbol>
  </defs>
</svg>
